<svg width="1007" height="390" viewBox="-.5 -.5 1007 390" style="background-color:#fff" xmlns="http://www.w3.org/2000/svg"><defs><clipPath id="prefix__a"><path d="M168 35h232v26H168z"/></clipPath><clipPath id="prefix__b"><path d="M168 69h232v70H168z"/></clipPath><clipPath id="prefix__c"><path d="M328 315h232v26H328z"/></clipPath><clipPath id="prefix__d"><path d="M328 349h232v40H328z"/></clipPath><clipPath id="prefix__e"><path d="M608 87h232v22H608z"/></clipPath><clipPath id="prefix__f"><path d="M448 217h232v22H448z"/></clipPath><clipPath id="prefix__g"><path d="M768 217h232v22H768z"/></clipPath><clipPath id="prefix__h"><path d="M8 315h232v26H8z"/></clipPath><clipPath id="prefix__i"><path d="M8 349h232v40H8z"/></clipPath></defs><path fill="#fffacd" fill-rule="evenodd" d="M-.5-.5h1007v390H-.5z"/><path d="M164 30V4h240v26" fill="#fff" stroke="#000" stroke-miterlimit="10" pointer-events="all"/><path d="M164 30v104h240V30" fill="#fff" stroke="#000" stroke-miterlimit="10" pointer-events="none"/><path d="M164 30h240" fill="none" stroke="#000" stroke-miterlimit="10" pointer-events="none"/><text x="283.5" y="21.5" font-family="Helvetica" font-weight="bold" font-style="italic" pointer-events="none" text-anchor="middle" font-size="12">Order</text><g font-family="Helvetica" pointer-events="none" clip-path="url(#prefix__a)" font-size="12"><text x="169.5" y="47.5">- value: number</text></g><path d="M164 60h240" fill="none" stroke="#000" stroke-miterlimit="10" pointer-events="none"/><g font-family="Helvetica" pointer-events="none" clip-path="url(#prefix__b)" font-size="12"><text x="169.5" y="81.5">+ getValue(): number</text><text x="169.5" y="95.5">+ setValue(number): void</text><text x="169.5" y="109.5">+ setShipping(ShippingStrategy): void</text><text x="169.5" y="123.5">+ calculete(): number</text></g><path d="M444 284L293.04 142.35" fill="none" stroke="#000" stroke-miterlimit="10" pointer-events="none"/><path d="M287.94 137.56l7.49 2.24-4.78 5.11zM324 310v-26h240v26M324 310v74h240v-74" fill="#fff" stroke="#000" stroke-miterlimit="10" pointer-events="none"/><path d="M324 310h240" fill="none" stroke="#000" stroke-miterlimit="10" pointer-events="none"/><text x="443.5" y="301.5" font-family="Helvetica" font-weight="bold" font-style="italic" pointer-events="none" text-anchor="middle" font-size="12">Furniture</text><g font-family="Helvetica" pointer-events="none" clip-path="url(#prefix__c)" font-size="12"><text x="329.5" y="327.5">- sectorName: string</text></g><path d="M324 340h240" fill="none" stroke="#000" stroke-miterlimit="10" pointer-events="none"/><g font-family="Helvetica" pointer-events="none" clip-path="url(#prefix__d)" font-size="12"><text x="329.5" y="361.5">+ getSectorName(): string</text><text x="329.5" y="375.5">+ setSectorname(string): void</text></g><path d="M604 74V34h240v40M604 74v30h240V74" fill="#fff" stroke="#000" stroke-miterlimit="10" pointer-events="none"/><path d="M604 74h240" fill="none" stroke="#000" stroke-miterlimit="10" pointer-events="none"/><g font-family="Helvetica" font-weight="bold" font-style="italic" pointer-events="none" text-anchor="middle" font-size="12"><text x="723.5" y="51.5">&lt;&lt;interface&gt;&gt;</text><text x="723.5" y="65.5">ShippingStrategy</text></g><path d="M604 78h240" fill="none" stroke="#000" stroke-miterlimit="10" pointer-events="none"/><g font-family="Helvetica" font-style="italic" pointer-events="none" clip-path="url(#prefix__e)" font-size="12"><text x="609.5" y="99.5">+ calculateShipping(number): number</text></g><path d="M623.46 164l93.3-54.91" fill="none" stroke="#000" stroke-miterlimit="10" stroke-dasharray="3 3" pointer-events="none"/><path d="M722.8 105.54l-4.26 6.56-3.55-6.03zM444 204v-40h240v40M444 204v30h240v-30" fill="#fff" stroke="#000" stroke-miterlimit="10" pointer-events="none"/><path d="M444 204h240" fill="none" stroke="#000" stroke-miterlimit="10" pointer-events="none"/><g font-family="Helvetica" font-weight="bold" font-style="italic" pointer-events="none" text-anchor="middle" font-size="12"><text x="563.5" y="181.5">&lt;&lt;interface&gt;&gt;</text><text x="563.5" y="195.5">ShippingStrategy</text></g><path d="M444 208h240" fill="none" stroke="#000" stroke-miterlimit="10" pointer-events="none"/><g font-family="Helvetica" font-style="italic" pointer-events="none" clip-path="url(#prefix__f)" font-size="12"><text x="449.5" y="229.5">+ calculateShipping(number): number</text></g><path d="M827.11 164l-91.16-56.08" fill="none" stroke="#000" stroke-miterlimit="10" stroke-dasharray="3 3" pointer-events="none"/><path d="M729.99 104.26l7.8.68-3.67 5.96zM764 204v-40h240v40M764 204v30h240v-30" fill="#fff" stroke="#000" stroke-miterlimit="10" pointer-events="none"/><path d="M764 204h240" fill="none" stroke="#000" stroke-miterlimit="10" pointer-events="none"/><g font-family="Helvetica" font-weight="bold" font-style="italic" pointer-events="none" text-anchor="middle" font-size="12"><text x="883.5" y="181.5">&lt;&lt;interface&gt;&gt;</text><text x="883.5" y="195.5">ShippingStrategy</text></g><path d="M764 208h240" fill="none" stroke="#000" stroke-miterlimit="10" pointer-events="none"/><g font-family="Helvetica" font-style="italic" pointer-events="none" clip-path="url(#prefix__g)" font-size="12"><text x="769.5" y="229.5">+ calculateShipping(number): number</text></g><path d="M604.72 62.7l-191.57-1.3" fill="none" stroke="#000" stroke-miterlimit="10" pointer-events="none"/><path d="M406.15 61.35l3.52-3.48 3.48 3.53-3.53 3.47z" fill="#fff" stroke="#000" stroke-miterlimit="10" pointer-events="none"/><path d="M129.76 281.9l147.41-140.75" fill="none" stroke="#000" stroke-miterlimit="10" pointer-events="none"/><path d="M282.23 136.31l-2.64 7.37-4.84-5.07zM4 310v-26h240v26M4 310v74h240v-74" fill="#fff" stroke="#000" stroke-miterlimit="10" pointer-events="none"/><path d="M4 310h240" fill="none" stroke="#000" stroke-miterlimit="10" pointer-events="none"/><text x="123.5" y="301.5" font-family="Helvetica" font-weight="bold" font-style="italic" pointer-events="none" text-anchor="middle" font-size="12">Electronic</text><g font-family="Helvetica" pointer-events="none" clip-path="url(#prefix__h)" font-size="12"><text x="9.5" y="327.5">- sectorName: string</text></g><path d="M4 340h240" fill="none" stroke="#000" stroke-miterlimit="10" pointer-events="none"/><g font-family="Helvetica" pointer-events="none" clip-path="url(#prefix__i)" font-size="12"><text x="9.5" y="361.5">+ getSectorName(): string</text><text x="9.5" y="375.5">+ setSectorname(string): void</text></g></svg>