<svg width="571" height="404" viewBox="-.5 -.5 571 404" style="background-color:#fff" xmlns="http://www.w3.org/2000/svg"><defs><clipPath id="prefix__b"><path d="M166 33h232v26H166z"/></clipPath><clipPath id="prefix__c"><path d="M166 67h232v30H166z"/></clipPath><clipPath id="prefix__d"><path d="M166 97h232v40H166z"/></clipPath><clipPath id="prefix__e"><path d="M6 293h232v26H6z"/></clipPath><clipPath id="prefix__f"><path d="M6 327h232v70H6z"/></clipPath><clipPath id="prefix__g"><path d="M326 293h232v26H326z"/></clipPath><clipPath id="prefix__h"><path d="M326 327h232v70H326z"/></clipPath><filter id="prefix__a" x="-.008" y="-.012" width="1.022" height="1.031"><feGaussianBlur in="SourceAlpha" stdDeviation="1.7" result="blur"/><feOffset in="blur" dx="3" dy="3" result="offsetBlur"/><feFlood flood-color="#3D4574" flood-opacity=".4" result="offsetColor"/><feComposite in="offsetColor" in2="offsetBlur" operator="in" result="offsetBlur"/><feBlend in="SourceGraphic" in2="offsetBlur"/></filter></defs><g filter="url(#prefix__a)"><path fill="#ffdab9" fill-rule="evenodd" d="M-.5-.5h571v404H-.5z"/><path d="M162 28V2h240v26" fill="#fff" stroke="#000" stroke-miterlimit="10" pointer-events="all"/><path d="M162 28v104h240V28" fill="#fff" stroke="#000" stroke-miterlimit="10" pointer-events="none"/><path d="M162 28h240" fill="none" stroke="#000" stroke-miterlimit="10" pointer-events="none"/><text x="281.5" y="19.5" font-family="Helvetica" font-weight="bold" font-style="italic" pointer-events="none" text-anchor="middle" font-size="12">Order</text><g font-family="Helvetica" pointer-events="none" clip-path="url(#prefix__b)" font-size="12"><text x="167.5" y="45.5">- value: number</text></g><path d="M162 58h240" fill="none" stroke="#000" stroke-miterlimit="10" pointer-events="none"/><g font-family="Helvetica" pointer-events="none" clip-path="url(#prefix__c)" font-size="12"><text x="167.5" y="79.5">+ getValue(): number</text><text x="167.5" y="93.5">+ setValue(number): void</text></g><g font-family="Helvetica" font-style="italic" pointer-events="none" clip-path="url(#prefix__d)" font-size="12"><text x="167.5" y="109.5">+ calculateCommonShipping(): number</text><text x="167.5" y="123.5">+ calculateExpressShipping(): number</text></g><path d="M122 262l153.7-124.88" fill="none" stroke="#000" stroke-miterlimit="10" pointer-events="none"/><path d="M281.13 132.71l-3.22 7.13-4.42-5.44zM2 288v-26h240v26M2 288v104h240V288" fill="#fff" stroke="#000" stroke-miterlimit="10" pointer-events="none"/><path d="M2 288h240" fill="none" stroke="#000" stroke-miterlimit="10" pointer-events="none"/><text x="121.5" y="279.5" font-family="Helvetica" font-weight="bold" pointer-events="none" text-anchor="middle" font-size="12">Electronic</text><g font-family="Helvetica" pointer-events="none" clip-path="url(#prefix__e)" font-size="12"><text x="7.5" y="305.5">- sectorName: string</text></g><path d="M2 318h240" fill="none" stroke="#000" stroke-miterlimit="10" pointer-events="none"/><g font-family="Helvetica" pointer-events="none" clip-path="url(#prefix__f)" font-size="12"><text x="7.5" y="339.5">+ getSectorName(): string</text><text x="7.5" y="353.5">+ setSectorname(string): void</text><text x="7.5" y="367.5">+ calculateCommonShipping(): number</text><text x="7.5" y="381.5">+ calculateExpressShipping(): number</text></g><path d="M442 262L288.3 136.92" fill="none" stroke="#000" stroke-miterlimit="10" pointer-events="none"/><path d="M282.87 132.51l7.64 1.7-4.42 5.43zM322 288v-26h240v26M322 288v104h240V288" fill="#fff" stroke="#000" stroke-miterlimit="10" pointer-events="none"/><path d="M322 288h240" fill="none" stroke="#000" stroke-miterlimit="10" pointer-events="none"/><text x="441.5" y="279.5" font-family="Helvetica" font-weight="bold" font-style="italic" pointer-events="none" text-anchor="middle" font-size="12">Furniture</text><g font-family="Helvetica" pointer-events="none" clip-path="url(#prefix__g)" font-size="12"><text x="327.5" y="305.5">- sectorName: string</text></g><path d="M322 318h240" fill="none" stroke="#000" stroke-miterlimit="10" pointer-events="none"/><g font-family="Helvetica" pointer-events="none" clip-path="url(#prefix__h)" font-size="12"><text x="327.5" y="339.5">+ getSectorName(): string</text><text x="327.5" y="353.5">+ setSectorname(string): void</text><text x="327.5" y="367.5">+ calculateCommonShipping(): number</text><text x="327.5" y="381.5">+ calculateExpressShipping(): number</text></g></g></svg>