<svg width="219mm" height="98mm" viewBox="0 0 219 98" xmlns="http://www.w3.org/2000/svg"><g transform="translate(-415.499 -243.187)"><path fill="#fffacd" fill-rule="evenodd" d="M415.425 242.845h219.791v98.69H415.425z"/><path d="M499.587 257.694l-13.21.071" fill="none" stroke="#000" stroke-width=".19"/><path d="M599.366 317.79l-55.494-35.025M525.811 317.864l.035-34.501" fill="none" stroke="#000" stroke-width=".265"/><path d="M422.085 252.426v-3.404h63.523v3.404m-63.523 0v13.616h63.523v-13.616" fill="#fff" stroke="#000" stroke-miterlimit="10" pointer-events="none" stroke-width=".186"/><text x="423.067" y="263.719" font-size="3.175" stroke-width=".265"><tspan style="-inkscape-font-specification:Helvetica" font-weight="400" font-family="Helvetica">+ pay(number): string</tspan></text><path d="M422.096 255.912h63.5M422.096 259.087h63.5" fill="none" stroke="#000" stroke-miterlimit="10" pointer-events="none" stroke-width=".265"/><text x="453.8" y="254.012" font-family="Helvetica" font-weight="700" pointer-events="none" text-anchor="middle" font-size="3.175" style="-inkscape-font-specification:'Helvetica Bold'" stroke-width=".265"><tspan x="453.8" y="254.012">Gateway</tspan></text><path d="M455.149 317.88l55.873-35.245" fill="none" stroke="#000" stroke-width=".265"/><path d="M487.28 258.831l-1.958-1.15 1.975-1.12z" fill-rule="evenodd" stroke="#000" stroke-width=".25" stroke-linecap="square" stroke-linejoin="round"/><path d="M428.663 321.58v-4.176h63.559v4.175m-63.559 0v16.702h63.559v-16.702" fill="#fff" stroke="#000" stroke-miterlimit="10" pointer-events="none" stroke-width=".206"/><text x="430.271" y="332.251" font-size="3.175" stroke-width=".265"><tspan x="430.271" y="332.251" style="-inkscape-font-specification:Helvetica" font-weight="400" font-family="Helvetica">+ calculateTax(): number</tspan><tspan x="430.271" y="336.396" style="-inkscape-font-specification:Helvetica" font-weight="400" font-family="Helvetica">+ calculateDiscount(): number</tspan></text><path d="M428.692 324.312h63.5M428.692 329.075h63.5" fill="none" stroke="#000" stroke-miterlimit="10" pointer-events="none" stroke-width=".265"/><path d="M495.04 321.338v-4.236h63.557v4.236m-63.557 0v16.943h63.557v-16.943" fill="#fff" stroke="#000" stroke-miterlimit="10" pointer-events="none" stroke-width=".208"/><path d="M495.068 324.18h63.5M495.068 328.943h63.5" fill="none" stroke="#000" stroke-miterlimit="10" pointer-events="none" stroke-width=".265"/><path d="M565.642 320.67v-3.408h63.578v3.409m-63.578 0v13.636h63.578V320.67" fill="#fff" stroke="#000" stroke-miterlimit="10" pointer-events="none" stroke-width=".186"/><path d="M565.68 324.18h63.5M565.68 328.943h63.5" fill="none" stroke="#000" stroke-miterlimit="10" pointer-events="none" stroke-width=".265"/><text x="497.52" y="332.37" font-size="3.175" stroke-width=".265"><tspan x="497.52" y="332.37" style="-inkscape-font-specification:Helvetica" font-weight="400" font-family="Helvetica">+ calculateTax(): number</tspan><tspan x="497.52" y="336.515" style="-inkscape-font-specification:Helvetica" font-weight="400" font-family="Helvetica">+ calculateDiscount(): number</tspan></text><text x="566.99" y="328.477" font-size="3.175" stroke-width=".265"><tspan x="566.99" y="332.622" style="-inkscape-font-specification:Helvetica" font-weight="400" font-family="Helvetica">+ calculateDiscount(): number</tspan></text><text x="452.67" y="322.514" font-family="Helvetica" font-weight="700" font-style="oblique" pointer-events="none" text-anchor="middle" font-size="3.175" style="-inkscape-font-specification:'Helvetica Bold Oblique'" stroke-width=".265"><tspan x="452.67" y="322.514" style="-inkscape-font-specification:'Helvetica Bold Oblique'">CreditPayment</tspan></text><text x="522.163" y="321.683" font-family="Helvetica" font-weight="700" font-style="oblique" pointer-events="none" text-anchor="middle" font-size="3.175" style="-inkscape-font-specification:'Helvetica Bold Oblique'" stroke-width=".265"><tspan x="522.163" y="321.683" style="-inkscape-font-specification:'Helvetica Bold Oblique'">DebtPayment</tspan></text><text x="589.332" y="321.788" font-family="Helvetica" font-weight="700" font-style="oblique" pointer-events="none" text-anchor="middle" font-size="3.175" style="-inkscape-font-specification:'Helvetica Bold Oblique'" stroke-width=".265"><tspan x="589.332" y="321.788" style="-inkscape-font-specification:'Helvetica Bold Oblique'">MoneyPayment</tspan></text><path d="M499.386 254.491v-6.88h63.5v6.88m-63.5 0v27.517h63.5V254.49" fill="#fff" stroke="#000" stroke-miterlimit="10" pointer-events="none" stroke-width=".265"/><text x="501.052" y="269.944" font-size="3.175" stroke-width=".265"><tspan x="501.052" y="269.944" style="-inkscape-font-specification:Helvetica" font-weight="400" font-family="Helvetica">+ calculateTax(): number</tspan><tspan x="501.052" y="274.089" style="-inkscape-font-specification:'Helvetica Oblique'" font-style="oblique" font-weight="400" font-family="Helvetica">+ calculateDiscount(): number</tspan><tspan x="501.052" y="278.235" style="-inkscape-font-specification:Helvetica" font-weight="400" font-family="Helvetica">+ charge(): string</tspan></text><path d="M499.386 254.491h63.5M499.386 264.016h63.5" fill="none" stroke="#000" stroke-miterlimit="10" pointer-events="none" stroke-width=".265"/><text x="501.233" y="258.16" font-size="3.175" stroke-width=".265"><tspan x="501.233" y="258.16" style="-inkscape-font-specification:Helvetica" font-weight="400" font-family="Helvetica">- gateway: Gateway</tspan><tspan x="501.233" y="262.305" style="-inkscape-font-specification:Helvetica" font-weight="400" font-family="Helvetica">- value: number</tspan></text><text x="566.7" y="269.345" font-size="3.175" stroke-width=".265"><tspan x="566.7" y="269.345" style="-inkscape-font-specification:Helvetica" font-weight="400" font-family="Helvetica">Hook</tspan></text><text x="523.364" y="252.693" font-family="Helvetica Light" font-weight="700" font-style="italic" pointer-events="none" text-anchor="middle" font-size="3.175" style="-inkscape-font-specification:'Helvetica Light, Bold Italic'" stroke-width=".265"><tspan x="523.364" y="252.693" style="-inkscape-font-specification:'Helvetica Bold Italic'" font-family="Helvetica">Payment</tspan></text><path d="M527.038 283.606l-1.15-1.958-1.12 1.975zM542.533 281.983l1.15 1.957 1.12-1.974zM510.05 281.803l1.15 1.957 1.12-1.975z" fill="#fff" fill-rule="evenodd" stroke="#000" stroke-width=".25" stroke-linecap="square" stroke-linejoin="round"/><circle cx="558.524" cy="268.505" r="1.235" fill="snow" fill-rule="evenodd" stroke="#000" stroke-width=".176"/><circle cx="558.524" cy="272.384" r="1.235" fill="snow" fill-rule="evenodd" stroke="#000" stroke-width=".176"/><circle cx="558.524" cy="276.456" r="1.235" fill="snow" fill-rule="evenodd" stroke="#000" stroke-width=".176"/><path d="M566.404 268.33l-6.71.136M566.424 272.29l-6.71.136M566.426 276.315l-6.71.136" fill="none" stroke="#000" stroke-width=".265" stroke-dasharray=".265 .53"/><text x="566.903" y="273.247" font-size="3.175" stroke-width=".265"><tspan x="566.903" y="273.247" style="-inkscape-font-specification:Helvetica" font-weight="400" font-family="Helvetica">Abstrac</tspan></text><text x="566.899" y="277.023" font-size="3.175" stroke-width=".265"><tspan x="566.899" y="277.023" style="-inkscape-font-specification:Helvetica" font-weight="400" font-family="Helvetica">Template Method</tspan></text></g></svg>