<svg width="289mm" height="81mm" viewBox="0 0 289 81" xmlns="http://www.w3.org/2000/svg"><path fill="#ffdab9" fill-rule="evenodd" d="M0 0h289.4v81.52H0z"/><path d="M84.221 41.869v-6.88h63.5v6.88m-63.5 0v27.516h63.5V41.87" fill="#fff" stroke="#000" stroke-miterlimit="10" pointer-events="none" stroke-width=".265"/><text x="341.899" y="70.984" font-size="3.175" stroke-width=".265" transform="translate(-256.012 -13.662)"><tspan x="341.899" y="70.984" style="-inkscape-font-specification:Helvetica" font-weight="400" font-family="Helvetica">+ calculateTax(): number</tspan><tspan x="341.899" y="75.129" style="-inkscape-font-specification:Helvetica" font-weight="400" font-family="Helvetica">+ calculateDiscount(): number</tspan><tspan x="341.899" y="79.274" style="-inkscape-font-specification:Helvetica" font-weight="400" font-family="Helvetica">+ charge(): string</tspan></text><path d="M84.221 41.869h63.5M84.221 51.394h63.5" fill="none" stroke="#000" stroke-miterlimit="10" pointer-events="none" stroke-width=".265"/><path d="M150.597 41.736v-6.879h63.5v6.88m-63.5 0v27.516h63.5V41.736" fill="#fff" stroke="#000" stroke-miterlimit="10" pointer-events="none" stroke-width=".265"/><path d="M150.597 41.736h63.5M150.597 51.261h63.5" fill="none" stroke="#000" stroke-miterlimit="10" pointer-events="none" stroke-width=".265"/><path d="M221.21 41.736v-6.879h63.5v6.88m-63.5 0v27.516h63.5V41.736" fill="#fff" stroke="#000" stroke-miterlimit="10" pointer-events="none" stroke-width=".265"/><path d="M221.21 41.736h63.5M221.21 51.261h63.5" fill="none" stroke="#000" stroke-miterlimit="10" pointer-events="none" stroke-width=".265"/><path d="M3.36 30.235v-4.284h63.5v4.284m-63.5 0v17.137h63.5V30.235" fill="#fff" stroke="#000" stroke-miterlimit="10" pointer-events="none" stroke-width=".209"/><text x="260.343" y="58.532" style="-inkscape-font-specification:Helvetica" font-weight="400" font-size="3.175" font-family="Helvetica" stroke-width=".265" transform="translate(-256.012 -13.662)">+ pay(number): string</text><path d="M3.36 32.83h63.5M3.36 40.768h63.5" fill="none" stroke="#000" stroke-miterlimit="10" pointer-events="none" stroke-width=".265"/><text x="291.077" y="44.592" font-family="Helvetica" font-weight="700" pointer-events="none" text-anchor="middle" font-size="3.175" style="-inkscape-font-specification:'Helvetica Bold'" stroke-width=".265" transform="translate(-256.012 -13.662)"><tspan x="291.077" y="44.592">Gateway</tspan></text><text x="342.081" y="59.2" font-size="3.175" stroke-width=".265" transform="translate(-256.012 -13.662)"><tspan x="342.081" y="59.2" style="-inkscape-font-specification:Helvetica" font-weight="400" font-family="Helvetica">- gateway: Gateway</tspan><tspan x="342.081" y="63.345" style="-inkscape-font-specification:Helvetica" font-weight="400" font-family="Helvetica">- value: number</tspan></text><text x="408.03" y="59.067" font-size="3.175" stroke-width=".265" transform="translate(-256.012 -13.662)"><tspan x="408.03" y="59.067" style="-inkscape-font-specification:Helvetica" font-weight="400" font-family="Helvetica">- gateway: Gateway</tspan><tspan x="408.03" y="63.212" style="-inkscape-font-specification:Helvetica" font-weight="400" font-family="Helvetica">- value: number</tspan></text><text x="479.907" y="59.067" font-size="3.175" stroke-width=".265" transform="translate(-256.012 -13.662)"><tspan x="479.907" y="59.067" style="-inkscape-font-specification:Helvetica" font-weight="400" font-family="Helvetica">- gateway: Gateway</tspan><tspan x="479.907" y="63.212" style="-inkscape-font-specification:Helvetica" font-weight="400" font-family="Helvetica">- value: number</tspan></text><text x="409.429" y="70.984" font-size="3.175" stroke-width=".265" transform="translate(-256.012 -13.662)"><tspan x="409.429" y="70.984" style="-inkscape-font-specification:Helvetica" font-weight="400" font-family="Helvetica">+ calculateTax(): number</tspan><tspan x="409.429" y="75.129" style="-inkscape-font-specification:Helvetica" font-weight="400" font-family="Helvetica">+ calculateDiscount(): number</tspan><tspan x="409.429" y="79.274" style="-inkscape-font-specification:Helvetica" font-weight="400" font-family="Helvetica">+ charge(): string</tspan></text><text x="479.428" y="70.984" font-size="3.175" stroke-width=".265" transform="translate(-256.012 -13.662)"><tspan x="479.428" y="70.984" style="-inkscape-font-specification:Helvetica" font-weight="400" font-family="Helvetica">+ calculateTax(): number</tspan><tspan x="479.428" y="75.129" style="-inkscape-font-specification:Helvetica" font-weight="400" font-family="Helvetica">+ calculateDiscount(): number</tspan><tspan x="479.428" y="79.274" style="-inkscape-font-specification:Helvetica" font-weight="400" font-family="Helvetica">+ charge(): string</tspan></text><path d="M42.428 25.877l.005-11.836" fill="none" stroke="#000" stroke-width=".265"/><path d="M111.257 14.13l-68.884.007" fill="none" stroke="#000" stroke-width=".253"/><path d="M111.19 34.89V14.015" fill="none" stroke="#000" stroke-width=".268"/><path d="M176.845 34.818l-.01-22.966" fill="none" stroke="#000" stroke-width=".28"/><path d="M43.58 23.872l-1.15 1.957-1.12-1.974z" fill-rule="evenodd" stroke="#000" stroke-width=".25" stroke-linecap="square" stroke-linejoin="round"/><path d="M37.76 25.876l.01-13.772" fill="none" stroke="#000" stroke-width=".285"/><path d="M38.91 23.87l-1.149 1.957-1.12-1.974z" fill-rule="evenodd" stroke="#000" stroke-width=".25" stroke-linecap="square" stroke-linejoin="round"/><path d="M33.174 25.926l.015-15.723" fill="none" stroke="#000" stroke-width=".303"/><path d="M34.326 23.904l-1.15 1.957-1.12-1.975z" fill-rule="evenodd" stroke="#000" stroke-width=".25" stroke-linecap="square" stroke-linejoin="round"/><path d="M176.915 11.968l-139.172.008M250.016 10.287l-216.814.012" fill="none" stroke="#000" stroke-width=".253"/><path d="M249.94 34.861l.004-24.697" fill="none" stroke="#000" stroke-width=".29"/><text x="368.108" y="53.399" font-family="Helvetica" font-weight="700" pointer-events="none" text-anchor="middle" font-size="3.175" style="-inkscape-font-specification:'Helvetica Bold'" stroke-width=".265" transform="translate(-256.012 -13.662)"><tspan x="368.108" y="53.399"><tspan style="-inkscape-font-specification:'Helvetica Bold'">CreditPayment</tspan></tspan></text><text x="437.601" y="52.568" font-family="Helvetica" font-weight="700" pointer-events="none" text-anchor="middle" font-size="3.175" style="-inkscape-font-specification:'Helvetica Bold'" stroke-width=".265" transform="translate(-256.012 -13.662)"><tspan x="437.601" y="52.568">DebtPayment</tspan></text><text x="504.77" y="52.673" font-family="Helvetica" font-weight="700" pointer-events="none" text-anchor="middle" font-size="3.175" style="-inkscape-font-specification:'Helvetica Bold'" stroke-width=".265" transform="translate(-256.012 -13.662)"><tspan x="504.77" y="52.673">MonreyPayment</tspan></text></svg>